<?xml version="1.0" encoding="UTF-8" standalone="no"?>
<!-- Created with Inkscape (http://www.inkscape.org/) -->

<svg
   version="1.1"
   id="svg1"
   width="212.21007"
   height="154.6335"
   viewBox="0 0 212.21007 154.6335"
   sodipodi:docname="idea2-polut.svg"
   inkscape:version="1.3.2 (091e20e, 2023-11-25, custom)"
   xmlns:inkscape="http://www.inkscape.org/namespaces/inkscape"
   xmlns:sodipodi="http://sodipodi.sourceforge.net/DTD/sodipodi-0.dtd"
   xmlns="http://www.w3.org/2000/svg"
   xmlns:svg="http://www.w3.org/2000/svg">
  <defs
     id="defs1" />
  <sodipodi:namedview
     id="namedview1"
     pagecolor="#ffffff"
     bordercolor="#000000"
     borderopacity="0.25"
     inkscape:showpageshadow="2"
     inkscape:pageopacity="0.0"
     inkscape:pagecheckerboard="0"
     inkscape:deskcolor="#d1d1d1"
     inkscape:zoom="2.3322981"
     inkscape:cx="87.038615"
     inkscape:cy="85.109188"
     inkscape:window-width="1920"
     inkscape:window-height="986"
     inkscape:window-x="-11"
     inkscape:window-y="-11"
     inkscape:window-maximized="1"
     inkscape:current-layer="g1" />
  <g
     inkscape:groupmode="layer"
     inkscape:label="Image"
     id="g1"
     transform="translate(-52.666668,-47.333333)">
    <path
       id="path1-7"
       style="display:inline;fill:#28220b;fill-opacity:1;stroke-width:0.305733"
       d="m 66.980024,183 -0.951172,0.33203 c -4.090041,1.42988 -3.165263,4.82519 1.914063,7.0293 2.979237,1.2928 3.817188,1.9375 4.060547,3.125 l 0.136718,0.67382 -0.412109,0.72657 c -1.267969,2.23663 -5.713268,2.11164 -7.017578,-0.19727 l -0.3125,-0.55078 0.244141,-0.26758 c 0.133517,-0.14728 0.210164,-0.46956 0.171874,-0.7168 l -0.06836,-0.44921 -0.617187,-0.0645 c -2.43155,-0.2541 -0.57273,3.82076 2.162109,4.74024 7.103656,2.38829 9.687867,-5.20809 2.679687,-7.87696 -3.356406,-1.27817 -4.30201,-2.08161 -4.027343,-3.42187 0.552431,-2.69564 6.636799,-2.35408 6.158203,0.3457 l -0.123047,0.69922 0.560547,0.12891 c 0.345159,0.0793 0.692081,0.0313 0.90039,-0.12696 l 0.339844,-0.25781 -0.113281,-0.76367 c -0.242346,-1.65399 -1.932571,-2.86249 -4.210937,-3.01172 z m 119.724616,0.24609 v 0.58594 0.58398 h 0.64062 0.63867 v 5.85157 5.84961 h -1.0664 -1.06445 v 0.58593 0.58399 h 2.6621 2.66407 v -0.58399 -0.58593 h -0.95899 -0.95898 v -6.43555 -6.43555 h -1.27735 z m 38.13281,0 v 0.58594 0.58398 h 0.63867 0.64063 v 5.85157 5.84961 h -1.06641 -1.06445 v 0.58593 0.58399 h 2.66211 2.66406 v -0.58399 -0.58593 h -0.95898 -0.95899 v -6.43555 -6.43555 h -1.27734 z m -144.328129,1.16992 c -1.036938,0 -1.527008,1.07226 -0.818359,1.78907 0.438449,0.44353 1.088518,0.45661 1.599609,0.0332 0.778874,-0.64525 0.274541,-1.82227 -0.78125,-1.82227 z m 10.224609,0 c -1.036937,0 -1.527007,1.07226 -0.818359,1.78907 0.438451,0.44353 1.090474,0.45661 1.601563,0.0332 0.778876,-0.64525 0.272587,-1.82227 -0.783204,-1.82227 z m 158.60352,0.97657 v 0.58398 0.58594 h 0.63867 0.63867 v 1.07226 1.07227 h -1.06445 -1.06641 v 0.58398 0.58594 h 1.06641 1.06445 l 0.01,2.29102 c 0.0148,3.65401 0.4249,4.77186 1.92773,5.2539 0.39911,0.12802 1.13289,0.23814 1.63086,0.24414 l 0.90625,0.0117 v -0.56054 -0.56055 l -1.06836,-0.0937 c -0.60408,-0.0531 -1.25031,-0.24655 -1.49023,-0.44531 l -0.42383,-0.35157 v -2.89453 -2.89453 h 1.16992 1.17188 v -0.58594 -0.58398 h -1.17188 -1.16992 v -1.6582 -1.65625 h -1.38476 z m -34.61914,2.88671 -1.16797,0.56446 -1.16797,0.5625 -0.62109,0.91992 -0.6211,0.91992 -0.10156,1.43946 -0.10156,1.4375 0.5332,1.0664 c 0.52378,1.04733 1.44764,1.88345 2.50977,2.27149 1.51927,0.55505 4.00656,0.0529 5.0957,-1.0293 l 0.51953,-0.51953 -0.45117,-0.41406 -0.45312,-0.41407 -0.66211,0.60742 c -1.88394,1.72459 -5.33591,0.58349 -5.69727,-1.88281 l -0.11914,-0.81054 h 3.88867 3.88867 l -0.0918,-1.16797 -0.0937,-1.16602 -0.64844,-0.73437 c -0.89213,-1.01043 -1.77431,-1.43791 -3.21289,-1.55274 z m -53.50195,0.0313 c -0.86361,0.057 -1.74339,0.34775 -2.55664,0.91601 l -0.98829,0.69141 0.13086,-0.60547 0.13282,-0.60547 h -1.37891 -1.37891 v 0.58398 0.58594 h 0.74414 0.7461 v 5.46094 5.45898 h -0.63867 -0.63868 v 0.58594 0.58398 h 1.91797 1.91602 v -0.58398 -0.58594 h -0.60742 -0.60938 l -0.13476,-1.3164 c -0.0747,-0.72398 -0.13594,-1.74308 -0.13672,-2.26563 l -0.002,-0.94922 0.47852,0.31446 c 3.66767,2.41313 8.0332,0.46709 8.0332,-3.58203 0,-2.91746 -2.43847,-4.85849 -5.02929,-4.6875 z m -43.28907,0.01 c -1.54545,0.12022 -3.04648,0.95133 -3.89062,2.62891 -1.1199,2.22559 -0.063,5.19263 2.2207,6.23437 2.46751,1.12562 5.21251,0.32117 6.41016,-1.8789 l 0.55469,-1.01954 -0.004,-1.27734 c -0.0114,-3.11393 -2.71526,-4.88787 -5.29102,-4.6875 z m 57.64063,0 c -2.46885,-0.0131 -4.76725,2.31881 -3.09375,3.13867 l 0.41992,0.20508 0.42188,-0.34961 c 0.23184,-0.19203 0.37731,-0.50168 0.32421,-0.6875 -0.27013,-0.94558 2.26166,-1.43365 3.51563,-0.67773 0.52239,0.3149 1.02734,1.19485 1.02734,1.78906 v 0.24219 l -0.90429,-0.19141 c -4.85268,-1.0278 -8.24516,3.71582 -3.9375,5.50586 1.47915,0.61467 3.78283,0.38287 4.83203,-0.48633 l 0.38867,-0.32226 0.7168,0.40039 c 0.39394,0.21984 1.02741,0.4001 1.4082,0.40039 h 0.69336 v -0.47071 -0.47265 l -0.64063,-0.12891 c -0.35135,-0.0707 -0.78115,-0.31697 -0.95703,-0.54687 l -0.32031,-0.41797 v -2.08789 c 0,-3.3389 -1.1964,-4.8275 -3.89453,-4.8418 z m -28.65625,0.0312 c -0.56792,-0.0288 -1.14559,0.0563 -1.66797,0.2832 -1.0813,0.46971 -1.57031,1.14481 -1.57031,2.16602 v 0.86914 l 0.61523,0.52734 c 0.3387,0.28962 1.32134,0.77845 2.1836,1.08594 2.16455,0.77191 2.52734,1.01224 2.52734,1.68555 0,1.41519 -2.67651,2.10019 -3.88477,0.99414 l -0.39453,-0.36133 0.23633,-0.56836 0.23633,-0.56836 -0.4707,-0.34961 -0.47071,-0.34765 -0.44922,0.26953 c -1.10604,0.66841 -0.39955,2.58065 1.20703,3.26758 l 0.9004,0.38671 1.22851,-0.0684 c 1.91833,-0.10613 3.20034,-1.19151 3.17774,-2.68946 l -0.0137,-0.83203 -0.59961,-0.55078 c -0.32999,-0.30207 -1.39745,-0.85163 -2.37304,-1.22266 -2.08227,-0.79192 -2.37891,-0.98618 -2.37891,-1.5664 0,-0.96125 1.52491,-1.51231 2.81836,-1.01758 l 0.76367,0.29297 -0.0332,0.65039 -0.0332,0.65234 h 0.74609 0.74414 l 0.0762,-0.48437 c 0.20233,-1.31374 -1.41735,-2.41753 -3.12109,-2.50391 z m -37.53711,0.14649 -2.18359,0.0566 -2.1836,0.0547 -0.0664,0.53711 -0.0684,0.53516 h 0.65429 c 0.35928,0 0.65235,0.0527 0.65235,0.11719 0,0.18255 -2.35774,5.03323 -2.52344,5.1914 -0.081,0.0773 -0.734,-1.08554 -1.45117,-2.58398 l -1.30469,-2.72461 h 0.61523 0.61719 v -0.58399 -0.58593 H 99.896 97.657718 v 0.58593 0.58399 h 0.91211 0.910156 l 0.941406,2 c 0.5175,1.09938 1.35162,2.81649 1.85352,3.81641 l 0.91211,1.81835 0.45898,-0.0644 0.45899,-0.0625 1.81445,-3.7539 1.81641,-3.75391 h 0.82031 0.81836 v -0.5918 z m 97.35547,0 -2.1836,0.0566 -2.18359,0.0547 -0.0664,0.53711 -0.0684,0.53516 h 0.65429 c 0.35929,0 0.65235,0.0527 0.65235,0.11719 0,0.18255 -2.3597,5.03323 -2.5254,5.1914 -0.081,0.0773 -0.73204,-1.08554 -1.44921,-2.58398 l -1.30469,-2.72461 h 0.61523 0.61719 v -0.58399 -0.58593 h -2.23828 -2.23633 v 0.58593 0.58399 h 0.91016 0.91211 l 0.9414,2 c 0.5175,1.09938 1.3516,2.81649 1.85352,3.81641 l 0.91211,1.81835 0.45898,-0.0644 0.45703,-0.0625 1.81641,-3.7539 1.81641,-3.75391 h 0.82031 0.81836 v -0.5918 z m -128.273443,0.20898 0.06836,0.53711 0.06641,0.53515 0.69336,0.0605 0.691406,0.0625 v 3.10742 3.10743 h -0.957031 -0.958985 v 0.58593 0.58399 h 2.341797 2.34375 v -0.58399 -0.58593 H 82.001513 81.25542 v -3.70508 -3.70508 h -1.398438 z m 10.226562,0 0.06641,0.53711 0.06836,0.53515 0.691406,0.0605 0.693359,0.0625 v 3.10742 3.10743 h -0.958988 -0.958984 v 0.58593 0.58399 h 2.34375 2.34375 v -0.58399 -0.58593 h -0.746094 -0.746094 v -3.70508 -3.70508 h -1.398437 z m 39.226571,0 v 0.58398 0.58594 h 0.63867 0.63867 l 0.002,2.29102 c 0.002,3.27273 0.55167,4.56732 2.22461,5.23437 v 0.002 c 1.34142,0.53487 3.29573,0.25071 4.40625,-0.63867 l 0.34961,-0.27929 0.7168,0.40039 c 0.39392,0.21987 1.0274,0.4001 1.4082,0.40039 h 0.69141 v -0.46289 -0.46289 l -0.61328,-0.11328 c -0.33737,-0.0618 -0.76716,-0.25392 -0.95703,-0.42774 l -0.34571,-0.31641 v -3.39843 -3.39844 h -1.38476 -1.38477 v 0.58398 0.58594 h 0.74609 0.74415 l -0.0117,1.80469 c -0.0172,2.43777 -0.2453,3.56519 -0.83985,4.14453 -1.03111,1.00474 -3.30453,0.80558 -3.99023,-0.34961 l -0.37305,-0.62695 -0.0742,-3.07032 -0.0742,-3.07226 h -1.25781 z m 105.875,0 v 0.58398 0.58594 h 0.64062 0.63867 v 2.29102 c 0.002,3.27273 0.55363,4.56733 2.22657,5.23437 v 0.002 c 1.34141,0.53486 3.29573,0.2507 4.40624,-0.63867 l 0.34961,-0.27929 0.71485,0.40039 c 0.39394,0.21985 1.02936,0.40009 1.41015,0.40039 h 0.69141 v -0.46289 -0.46289 l -0.61328,-0.11328 c -0.33737,-0.0618 -0.76911,-0.25392 -0.95898,-0.42774 l -0.34571,-0.31641 v -3.39843 -3.39844 h -1.38476 -1.38282 v 0.58398 0.58594 h 0.74414 0.7461 l -0.0117,1.80469 c -0.0172,2.43778 -0.24725,3.56519 -0.8418,4.14453 -1.03111,1.00473 -3.30453,0.80558 -3.99023,-0.34961 l -0.3711,-0.62695 -0.0742,-3.07032 -0.0742,-3.07226 h -1.25977 z m -18.18164,0.7793 c 1.26601,0 3.05664,1.24617 3.05664,2.12695 0,0.14507 -0.99075,0.21289 -3.0879,0.21289 h -3.08984 v -0.27734 c 0,-0.82213 1.87695,-2.0625 3.1211,-2.0625 z m -97.17383,0.0234 c 0.50191,0 1.00516,0.13891 1.60547,0.41602 l 0.95117,0.43945 0.47851,0.86914 c 0.28877,0.52421 0.47852,1.22603 0.47852,1.76368 0,1.06309 -0.70672,2.44177 -1.53516,2.99414 -3.0304,2.02058 -6.81562,-1.58439 -5.00586,-4.76758 l 0.48828,-0.85938 0.94141,-0.43945 c 0.59442,-0.27711 1.09574,-0.41602 1.59766,-0.41602 z m 43.03125,0 c 0.50191,0 1.00712,0.13891 1.60742,0.41602 l 0.94922,0.43945 0.48047,0.86914 c 0.28877,0.52421 0.47851,1.22603 0.47851,1.76368 0,0.53763 -0.18974,1.2375 -0.47851,1.76171 l -0.48047,0.86914 -0.94922,0.43946 c -3.27069,1.50981 -6.39071,-1.75178 -4.63281,-4.84375 l 0.48828,-0.85938 0.9414,-0.43945 c 0.59441,-0.27711 1.09379,-0.41602 1.59571,-0.41602 z m 13.87304,3.32618 c 0.5265,-0.009 1.12837,0.05 1.79883,0.18164 l 1.10156,0.21679 -0.0996,0.95508 c -0.11255,1.07236 -0.56312,1.65342 -1.59374,2.05274 -1.8209,0.70551 -3.68165,-0.0769 -3.68165,-1.54688 0,-1.18429 0.89513,-1.83161 2.47461,-1.85937 z"
       sodipodi:nodetypes="ccsccccccccssssccccccccccccccccccccccccccccccccccccccccccccccccccssssssssccccccccccccccscccccccccccccccccccccccccccscccccccccccscccccccccccccccccccccccccccccscccsscccccsccccssccscccccccsccsssssccsscccccccccccccsscccccccsscccccsssccccccccccccscccccccccccccccsssccccccccccccscccccccccccccccccccccccccccccccccccccccccccccccccccccccccccccccccccccccccccccccsccccccccccccccccccccccsccccccccccsccccccssscssscccsscccsscccsccccccsscccssss" />
    <path
       style="display:inline;fill:#000000"
       d="m 163.47608,175.99276 c -2.0145,-1.22824 -2.34677,-1.25483 -4.13356,-0.33084 -2.90595,1.50273 -3.93344,1.16755 -1.79198,-0.58456 l 1.88386,-1.54136 -5.30499,-2.64497 -5.305,-2.64496 -3.57887,1.59674 c -4.11646,1.8366 -13.48208,3.79823 -15.12475,3.16788 -0.9602,-0.36847 -0.88505,-0.60305 0.55023,-1.7176 1.98528,-1.54165 9.35356,-3.95976 12.06587,-3.95976 2.67278,0 2.4114,-0.94767 -0.71014,-2.57471 l -2.63993,-1.37601 -3.86007,1.76889 c -2.8845,1.32182 -5.26672,1.84307 -9.42573,2.06241 -5.16777,0.27253 -5.54904,0.20389 -5.33333,-0.9602 0.27411,-1.47929 5.51308,-3.28549 11.39898,-3.92994 C 134.275,162.09293 136,161.65011 136,161.33974 136,160.44164 131.65359,158 130.05487,158 c -0.79992,0 -2.41451,0.49997 -3.58797,1.11105 -2.75217,1.43318 -9.26172,2.83566 -13.30023,2.86553 -2.66128,0.0197 -3.16667,-0.17627 -3.16667,-1.22782 0,-1.9626 5.99822,-4.23405 12.16667,-4.60738 2.84167,-0.17198 5.16369,-0.49915 5.16006,-0.72704 -0.004,-0.22789 -1.3827,-1.36578 -3.06459,-2.52865 -3.0142,-2.08404 -3.09761,-2.10011 -5.82672,-1.12314 -4.99753,1.78903 -13.77435,0.97389 -15.80049,-1.46746 -0.70103,-0.84469 -0.66893,-1.21347 0.17948,-2.06188 0.77325,-0.77325 2.47816,-1.03321 6.77607,-1.03321 3.88641,0 5.74124,-0.24783 5.73784,-0.76667 -0.003,-0.42166 -1.35276,-2.09031 -3,-3.7081 -3.45115,-3.38944 -4.05888,-6.05856 -1.37947,-6.05856 2.22609,0 5.33396,2.78609 7.04068,6.3117 1.89005,3.90431 3.87087,6.35496 5.13661,6.35496 0.74753,0 0.91434,-0.4107 0.60925,-1.5 -1.65681,-5.9155 -0.65838,-11.9874 2.03427,-12.37128 2.18247,-0.31115 3.19034,3.48403 2.60635,9.81437 -0.67685,7.33687 -0.71325,7.18545 2.41704,10.05431 4.42379,4.05433 5.47396,3.48321 3.56162,-1.93692 C 132.87141,149.1898 134.1708,144 136.70663,144 c 2.07869,0 2.79998,2.91883 2.42182,9.80032 l -0.33706,6.13365 3.66797,2.76935 c 4.39321,3.3169 5.65624,2.88993 3.96378,-1.33995 -1.33853,-3.34533 -1.41529,-8.6634 -0.15001,-10.39377 0.90387,-1.23612 0.99008,-1.23971 2.25603,-0.094 2.54611,2.30419 3.56388,10.42526 1.82807,14.58667 -0.45659,1.09462 0.617,1.89632 8.51873,6.36128 2.28346,1.29029 4.3891,0.99954 7.75353,-1.07062 1.71066,-1.05258 3.79054,-2.12968 4.62195,-2.39356 1.06683,-0.3386 1.38254,-0.80537 1.07288,-1.58622 -0.24133,-0.60855 -0.74925,-2.60644 -1.12871,-4.43978 -0.57698,-2.78762 -0.4818,-3.9242 0.58135,-6.94255 0.69919,-1.98507 1.80299,-3.93507 2.45287,-4.33333 3.09614,-1.89739 4.26036,6.1468 1.64695,11.37964 -2.1999,4.40488 -0.92273,4.75896 4.0009,1.10919 l 4.17207,-3.09266 -0.52487,-3.06014 c -0.68426,-3.98941 -0.39932,-11.09289 0.51337,-12.79827 0.39511,-0.73828 1.21561,-1.24656 1.82333,-1.12952 2.63677,0.50779 3.63693,6.58626 1.80509,10.97047 -2.05883,4.92749 -1.14389,5.35055 3.74252,1.73051 3.3611,-2.49005 3.37291,-2.51195 2.96345,-5.5 -1.19694,-8.73499 -1.22341,-11.95305 -0.11224,-13.64891 2.74198,-4.18479 5.43923,0.42349 4.76961,8.14891 C 198.7996,147.825 198.87129,150 199.18933,150 c 0.97311,0 3.24794,-2.83991 4.80613,-6 1.79487,-3.64011 5.84621,-8 7.43383,-8 2.9715,0 2.30464,3.24817 -1.47221,7.17089 -1.50262,1.56066 -2.61672,3.18349 -2.47579,3.6063 0.17017,0.5105 1.99482,0.71797 5.43183,0.61761 3.23423,-0.0944 5.53404,0.14638 6.13123,0.642 4.10613,3.40778 -7.00688,6.74472 -14.34494,4.30741 l -3.49018,-1.15925 -2.74197,1.98627 c -4.17296,3.02287 -3.94434,3.49544 1.69098,3.49544 4.06283,0 5.57631,0.32431 8.55556,1.83333 4.87633,2.46991 4.78919,3.7727 -0.2699,4.03494 -3.9952,0.2071 -8.53781,-0.92627 -13.30046,-3.3184 l -2.52322,-1.26734 -3.30937,1.85873 c -1.82015,1.02231 -3.21089,2.15874 -3.09051,2.5254 0.12037,0.36667 2.29503,0.8433 4.83259,1.05918 7.66442,0.65205 12.95396,2.86727 11.15119,4.67004 -1.20225,1.20226 -8.31136,0.80254 -11.71269,-0.65855 -1.74639,-0.75018 -3.24639,-1.35189 -3.33334,-1.33712 -0.0869,0.0148 -1.02539,-0.3029 -2.08542,-0.70592 -1.52415,-0.57948 -2.53525,-0.50061 -4.83333,0.37704 -1.5983,0.6104 -2.906,1.35546 -2.906,1.6557 0,0.30023 1.125,0.73401 2.5,0.96394 6.79966,1.13706 13.5,3.97976 13.5,5.72753 0,1.36712 -7.6087,0.0832 -14.2517,-2.4049 l -6.24664,-2.33964 -4.4175,2.00299 c -4.67962,2.12184 -5.23409,2.83911 -3.08416,3.98971 1.29533,0.69325 1.84155,2.00254 0.83333,1.99751 -0.275,-0.001 -1.48576,-0.60351 -2.69059,-1.33808 z M 79.040523,148.04477 c -0.855658,-0.94549 -1.043924,-1.84495 -0.707128,-3.37837 0.562742,-2.56215 1.790554,-3.12214 3.784024,-1.72586 2.099343,1.47044 3.122595,1.32702 3.981487,-0.55805 1.931906,-4.24007 -2.17956,-7.71397 -17.702125,-14.95706 -7.535552,-3.51621 -10.024003,-4.37908 -12.563446,-4.35637 -1.741667,0.0156 -3.166667,-0.19815 -3.166667,-0.47496 0,-0.27681 1.214608,-2.93738 2.699129,-5.91238 l 2.699129,-5.4091 3.467538,1.97554 c 1.907146,1.08654 7.667538,4.2695 12.800872,7.07325 10.275172,5.61215 13.21255,7.96951 15.08224,12.10408 1.49836,3.31342 1.180075,5.6555 -1.498472,11.02643 -2.812036,5.63859 -6.297927,7.44224 -8.876581,4.59285 z m 182.100037,-1.43599 c -2.15398,-1.77549 -2.34112,-2.17077 -1.69699,-3.58448 1.05348,-2.31213 0.13041,-6.07157 -1.87883,-7.65205 -2.57746,-2.02742 -5.75294,-2.67351 -10.07217,-2.04928 -4.79882,0.69354 -14.46233,4.74592 -16.91047,7.09139 l -1.84975,1.77217 -1.71828,-3.88533 c -2.81588,-6.36721 -2.81102,-6.62767 0.12445,-6.67713 2.98489,-0.0503 21.97879,-8.63956 23.11992,-10.4551 0.53972,-0.8587 0.51794,-1.50687 -0.083,-2.46909 -1.05315,-1.68637 -0.12023,-2.23203 2.2686,-1.32691 3.48934,1.32211 4.88928,3.21961 4.88928,6.62703 0,3.124 -1.43869,5.33508 -4,6.14747 -0.60304,0.19128 0.35449,0.90415 2.41217,1.79584 4.57003,1.9804 7.55589,5.18061 8.60417,9.22182 0.81523,3.1428 0.66537,6.54087 -0.31519,7.14689 -0.26013,0.16077 -1.5624,-0.60568 -2.89393,-1.70324 z m -96.57279,-5.55962 c -1.14235,-2.50718 -0.26158,-4.65096 2.2899,-5.57358 3.04121,-1.09972 3.54588,-1.03559 5.11637,0.65013 1.5092,1.61994 1.79071,4.50954 0.5593,5.74096 -0.44,0.44 -2.24643,0.8 -4.01429,0.8 -2.75558,0 -3.31947,-0.23084 -3.95128,-1.61751 z m -12.57056,-1.38586 c -0.48813,-0.58816 -0.91218,-2.31522 -0.94235,-3.83792 -0.0482,-2.43194 0.16578,-2.84764 1.75982,-3.4191 1.14811,-0.41159 2.72381,-0.42202 4.2897,-0.0284 5.20647,1.30873 3.97482,7.73915 -1.562,8.15513 -1.81638,0.13647 -2.93861,-0.13884 -3.54517,-0.8697 z m 9.87362,-6.42566 c -2.30772,-0.84439 -3.68269,-4.48949 -2.44253,-6.47529 1.78522,-2.8586 6.26084,-3.61417 8.26838,-1.39586 2.55757,2.82609 0.75237,8.70846 -2.63333,8.58088 -0.76817,-0.029 -2.20481,-0.34833 -3.19252,-0.70973 z M 94.333336,123.12291 C 92.500003,122.24523 87.715816,119.38353 83.70181,116.76357 77.822072,112.92583 75.900097,112 73.812921,112 c -1.424883,0 -2.490697,-0.26849 -2.368474,-0.59663 0.394867,-1.06016 7.544471,-11.3595 7.888889,-11.36431 0.183333,-0.003 0.860435,1.1126 1.504672,2.47814 0.815302,1.72814 3.301956,4.1039 8.180945,7.81613 10.971666,8.34791 13.040077,9.11037 16.012887,5.90265 3.65035,-3.93879 1.24122,-10.30858 -7.21117,-19.066511 -4.071841,-4.219031 -6.089232,-5.814464 -7.820667,-6.184894 L 87.666669,90.485371 92.951656,85.6098 c 2.906742,-2.681565 5.531742,-4.723068 5.833333,-4.536674 0.301591,0.186393 0.548347,1.209518 0.548347,2.27361 0,1.309213 1.007964,3.18243 3.117714,5.793988 11.68561,14.465076 12.95503,15.719866 14.42053,14.254366 1.29211,-1.29211 1.79509,-0.78425 1.79509,1.81254 0,4.92196 -3.9359,6.84346 -8.38521,4.09364 l -2.20926,-1.36539 0.36488,4.53206 c 0.32284,4.00992 0.18427,4.79382 -1.20277,6.80409 -3.56052,5.16038 -7.628948,6.37478 -12.900974,3.85088 z m 127.475654,-2.71235 c -3.79569,-1.05088 -7.51613,-3.89545 -9.27824,-7.09393 -0.98475,-1.78745 -1.22186,-3.30647 -1.03803,-6.64996 0.27554,-5.01149 1.60364,-8.119019 5.23123,-12.240179 11.62609,-13.207931 31.23248,0.901912 28.96154,13.463059 -1.02242,5.65532 -6.06845,10.05131 -10.43639,9.09195 -1.13217,-0.24867 -4.24011,-2.58584 -7.43094,-5.58807 -3.01665,-2.83835 -6.02648,-5.35999 -6.68851,-5.60365 -0.81015,-0.29817 -1.76084,0.11414 -2.90783,1.26113 -1.37643,1.37643 -1.62423,2.1123 -1.28861,3.82662 0.97163,4.96299 6.04988,8.44135 12.37472,8.47608 2.43419,0.0134 3.35138,0.21891 2.69208,0.60331 -1.9057,1.11111 -6.99762,1.33777 -10.19102,0.45364 z m 19.15797,-12.40315 c 1.76432,-1.76432 2.03305,-2.50892 2.03305,-5.63319 0,-11.68219 -16.32481,-9.760559 -23.20511,-0.54808 l -1.87249,2.50719 3.30009,0.41841 c 2.03067,0.25746 4.41769,1.18109 6.20547,2.40113 5.96178,4.06851 10.06597,4.32755 13.53899,0.85454 z m -62.96695,-3.10979 c -2.01667,-0.42298 -3.74938,-0.79798 -3.85046,-0.83334 -0.10108,-0.0353 0.27101,-0.94376 0.82688,-2.01868 1.0358,-2.00303 1.49345,-4.146383 5.05224,-23.661842 C 182.28346,66.019127 182.23086,64 179.65397,64 c -2.35175,0 -2.09203,-1.739225 0.45651,-3.057129 3.12875,-1.617937 7.72253,-0.937897 9.77381,1.446865 1.307,1.519477 1.53639,2.373831 1.27056,4.732251 -0.17842,1.582907 -0.28625,2.876757 -0.23962,2.875223 0.0466,-0.0015 1.56062,-0.751535 3.36443,-1.666667 2.47244,-1.25435 4.32018,-1.663876 7.50726,-1.663876 7.62474,0 13.19363,4.028129 15.24212,11.025025 0.86965,2.970426 0.86736,3.748515 -0.0198,6.735965 -2.42667,8.1715 -13.50673,15.805293 -21.00921,14.474652 -4.588,-0.813727 -8.40025,-4.006614 -9.63422,-8.068976 -0.2506,-0.825 -0.69895,-1.5 -0.99633,-1.5 -0.72207,0 -2.83932,8.079849 -3.31919,12.666667 l -0.3836,3.66667 z m 18.1129,-10.91783 c 1.34544,-0.373693 3.98537,-2.06325 5.86653,-3.754572 7.80167,-7.01437 8.66835,-15.635251 2.02057,-20.098574 -7.75066,-5.203791 -18.80444,6.450036 -16.71686,17.624318 0.42917,2.297233 1.19417,3.749388 2.66972,5.06779 2.30397,2.058602 2.67601,2.128724 6.16004,1.161038 z m -70.77957,6.52143 c 0,-1.537299 -1.65332,-4.905756 -5.69962,-11.612382 -3.1348,-5.195819 -6.14368,-9.815477 -6.68641,-10.265906 -0.7673,-0.636801 -1.37228,-0.643323 -2.71987,-0.02932 -2.16414,0.98605 -2.46868,0.689063 -1.90854,-1.861234 1.28151,-5.834661 7.79094,-8.058436 11.81358,-4.035797 1.11646,1.116453 2.09015,1.941453 2.16377,1.833334 0.0736,-0.10812 0.65461,-1.602509 1.29109,-3.320864 3.58366,-9.675096 16.88377,-12.377419 21.72638,-4.414378 0.69121,1.136597 2.0585,6.410639 3.0584,11.797111 0.99458,5.357852 2.37992,10.754359 3.07853,11.992237 0.69861,1.237878 1.18301,2.327002 1.07644,2.420276 -0.49606,0.434185 -9.15784,2.142727 -9.43876,1.861803 -0.17518,-0.175178 -0.16453,-1.267368 0.0237,-2.427088 0.31176,-1.921189 -3.17938,-16.157422 -5.22311,-21.298897 -1.70671,-4.293585 -7.05694,-5.202831 -10.47893,-1.780842 -3.87464,3.874642 -3.61434,9.573647 0.86963,19.039398 1.62119,3.422357 3.74848,7.02333 4.72731,8.002162 1.99409,1.994091 2.0486,1.914069 -3.1514,4.625937 -4.07356,2.12441 -4.52216,2.07227 -4.52216,-0.52555 z m 34.44924,-10.011274 c 0.63442,-2.484217 0.32147,-22.332116 -0.39455,-25.022428 -0.37407,-1.405517 -0.9815,-1.877446 -2.76699,-2.14976 l -2.2877,-0.348908 2.43333,-2.484425 C 158.55631,58.657211 159.75546,58 161.29978,58 c 2.78793,0 5.80883,1.626669 6.48631,3.492688 0.30099,0.829022 0.54725,7.507312 0.54725,14.840645 0,7.333334 0.25262,13.980161 0.56138,14.770727 0.54422,1.393452 0.4051,1.439 -4.55076,1.489946 l -5.11215,0.05255 z m 1.05076,-35.844054 c -1.15218,-0.463119 -1.5,-1.1402 -1.5,-2.91994 0,-2.528751 1.84508,-4.392619 4.34834,-4.392619 3.33042,0 4.13454,4.332324 1.22842,6.61828 -1.9545,1.537411 -1.97182,1.540361 -4.07676,0.694279 z"
       id="path2"
       sodipodi:nodetypes="ssssscccssssscsssssssssscssssscssssssssssscssscsssssssssscsssssssssssssssscssssscsssssssssssscsssssssssssscsssssssssscsssssssssssssssssssssssssssssssssscssssscssssssscssssssssssssssssssscsssscssssssssssssssssssssssscsssssssssssscsssssscssscsssssssssss" />
  </g>
  <g
     inkscape:groupmode="layer"
     id="layer1"
     inkscape:label="Image 1"
     transform="translate(-52.666668,-47.333333)" />
</svg>
