<?xml version="1.0" encoding="UTF-8" standalone="no"?>
<!-- Created with Inkscape (http://www.inkscape.org/) -->

<svg
   version="1.1"
   id="svg1"
   width="615.12"
   height="258.91486"
   viewBox="0 0 615.12 258.91486"
   sodipodi:docname="juniper-logo-svg.svg"
   inkscape:version="1.3.2 (091e20e, 2023-11-25, custom)"
   xmlns:inkscape="http://www.inkscape.org/namespaces/inkscape"
   xmlns:sodipodi="http://sodipodi.sourceforge.net/DTD/sodipodi-0.dtd"
   xmlns="http://www.w3.org/2000/svg"
   xmlns:svg="http://www.w3.org/2000/svg">
  <defs
     id="defs1" />
  <sodipodi:namedview
     id="namedview1"
     pagecolor="#ffffff"
     bordercolor="#ffffff"
     borderopacity="0.25"
     inkscape:showpageshadow="2"
     inkscape:pageopacity="0.0"
     inkscape:pagecheckerboard="0"
     inkscape:deskcolor="#d1d1d1"
     inkscape:zoom="1.5431861"
     inkscape:cx="344.09329"
     inkscape:cy="153.25436"
     inkscape:window-width="1920"
     inkscape:window-height="986"
     inkscape:window-x="-11"
     inkscape:window-y="-11"
     inkscape:window-maximized="1"
     inkscape:current-layer="g1" />
  <g
     inkscape:groupmode="layer"
     inkscape:label="Image"
     id="g1"
     transform="translate(-3.2956168,-5.3188608)">
    <path
       style="fill:#3A5447"
       d="m 289.77112,263.20496 -1.6443,-1.258 4.22498,-20.88466 c 4.59515,-22.71443 4.5013,-22.04388 3.76759,-26.92076 -0.48213,-3.2046 -0.42308,-3.39989 1.2598,-4.16666 3.3977,-1.5481 4.20164,-1.11581 4.70291,2.52885 0.49598,3.60623 0.68773,3.80867 2.28084,2.40793 2.45881,-2.1619 8.43325,-4.66314 11.80654,-4.94288 6.50879,-0.53976 9.32836,2.96199 8.72427,10.83507 -0.58026,7.56259 -2.58243,11.98588 -7.72506,17.06658 -5.80231,5.73244 -9.68013,7.6333 -15.57222,7.6333 h -4.48562 l -0.71391,3.66667 c -0.39266,2.01666 -0.87152,4.56666 -1.06415,5.66666 -0.19263,1.1 -0.48967,2.49857 -0.66008,3.10793 -0.22401,0.80099 0.24938,1.23075 1.70879,1.55129 1.11025,0.24385 2.17305,0.69321 2.36178,0.99858 0.76192,1.23281 -0.59421,2.66242 -2.89222,3.04895 -1.3396,0.22532 -2.88563,0.52431 -3.43563,0.66441 -0.55,0.14011 -1.73994,-0.31136 -2.64431,-1.00326 z m 19.9016,-24.32857 c 2.81062,-1.45343 6.25873,-5.75923 7.60083,-9.49148 1.71163,-4.75988 1.81208,-11.02966 0.20522,-12.80856 -1.755,-1.94288 -5.412,-1.82055 -9.46405,0.31658 -6.02145,3.17584 -6.53258,4.00361 -8.21959,13.31133 -0.83054,4.58231 -1.34908,8.751 -1.15232,9.26376 0.6978,1.81844 7.02571,1.47902 11.02991,-0.59163 z m -244.257298,8.02812 c -1.46666,-0.46384 -3.703517,-1.38346 -4.970783,-2.0436 -2.266234,-1.18051 -2.319638,-1.17687 -3.247981,0.22129 -1.220679,1.83844 -5.049084,2.05325 -4.542349,0.25486 0.180804,-0.64166 0.66449,-3.41666 1.074859,-6.16666 1.219282,-8.17078 1.147436,-8 3.365625,-8 1.934588,0 1.987298,0.0865 1.987298,3.26283 0,2.65548 0.34842,3.63581 1.871802,5.2666 4.699909,5.03126 16.457329,4.47006 20.402469,-0.97385 1.77187,-2.44501 2.1583,-7.45196 0.78073,-10.11588 -0.60138,-1.16295 -4.64283,-4.93436 -8.98101,-8.38092 -4.33818,-3.44656 -8.58955,-7.40227 -9.4475,-8.79045 -1.860908,-3.01102 -2.526804,-9.29005 -1.299454,-12.25313 1.232674,-2.97593 6.133594,-7.15136 9.445874,-8.04759 3.87504,-1.0485 10.30949,-0.46284 13.65251,1.24265 l 2.71954,1.3874 0.8777,-1.64 c 0.65662,-1.22692 1.2261,-1.53321 2.26086,-1.21602 0.76073,0.2332 1.49655,0.52513 1.63516,0.64874 0.13861,0.12362 -0.16139,3.46135 -0.66667,7.41719 l -0.91868,7.19243 -2.16666,0.2089 -2.16667,0.20891 v -3.22724 c 0,-5.42067 -3.15636,-8.19057 -9.33333,-8.19057 -7.61272,0 -11.99342,5.5447 -8.98185,11.36843 0.55998,1.08289 3.78498,4.17437 7.16666,6.86995 12.60304,10.04606 15.1271,15.05061 12.08852,23.96835 -1.27262,3.73494 -6.49028,8.75368 -10.16043,9.77306 -3.27168,0.9087 -9.16387,0.7924 -12.44624,-0.24568 z m 31.12955,-0.71603 c -0.61316,-1.34573 -0.21753,-4.22374 2.15361,-15.66666 l 2.904748,-14.01809 h -3.304898 c -3.18773,0 -3.29742,-0.063 -3.09395,-1.77578 0.18417,-1.55035 0.79866,-1.97349 4.840798,-3.33333 2.54642,-0.85666 5.10565,-1.55756 5.68718,-1.55756 1.55454,0 2.69577,3.56309 1.97718,6.17305 -0.32714,1.18816 -1.60401,7.50401 -2.83749,14.03522 l -2.2427,11.87494 4.22632,-0.4526 c 4.16486,-0.44602 4.22632,-0.42883 4.22632,1.18244 0,1.50671 -0.51983,1.77443 -6.62289,3.411 -3.64258,0.97677 -6.744428,1.77595 -6.892988,1.77595 -0.14855,0 -0.60811,-0.74186 -1.02124,-1.64858 z m 23.096058,0.0117 c -0.6048,-1.32738 -0.222,-4.19511 2.02453,-15.16667 1.52369,-7.44138 2.76574,-13.75478 2.7601,-14.02978 -0.006,-0.275 -1.38016,-0.5 -3.05452,-0.5 -2.89135,0 -3.03368,-0.0875 -2.83333,-1.74113 0.17779,-1.46744 0.87866,-1.9914 4.45878,-3.33333 5.4783,-2.05342 6.6216,-2.02244 7.46746,0.20237 0.66987,1.76189 0.25812,4.48445 -3.74721,24.77673 -0.53244,2.69756 -0.96808,5.05201 -0.96808,5.23213 0,0.18011 1.8,0.11857 4,-0.13677 3.93325,-0.4565 4,-0.43681 4,1.18014 0,1.50922 -0.51986,1.78861 -6.32407,3.39879 -3.47823,0.96492 -6.48466,1.7544 -6.68096,1.7544 -0.19629,0 -0.69251,-0.73659 -1.1027,-1.63688 z m 66.13209,0.89374 c -3.4573,-1.05122 -5.81292,-2.99198 -7.84952,-6.46709 -1.58339,-2.70179 -1.82049,-3.7976 -1.75756,-8.1231 0.13153,-9.04174 4.60152,-17.10973 11.63442,-20.99924 3.07234,-1.69915 4.31545,-1.99521 8.28163,-1.97238 5.64486,0.0325 9.35803,1.8247 12.15751,5.86792 1.69888,2.45366 1.84249,3.159 1.84249,9.04906 0,5.52402 -0.23987,6.89967 -1.7736,10.1714 -2.14961,4.58553 -6.55896,9.51564 -10.14817,11.34672 -3.09892,1.58095 -9.09852,2.12666 -12.3872,1.12671 z m 8.8408,-4.15755 c 4.59981,-1.92193 8.63718,-8.95606 9.53538,-16.61307 0.91044,-7.76142 -2.37652,-12.48624 -8.68643,-12.48624 -7.78306,0 -13.04903,7.51608 -13.04641,18.621 0.001,5.42351 1.45634,8.60808 4.66563,10.2113 2.8044,1.40095 4.66044,1.46675 7.53183,0.26701 z m 47.25359,3.22842 c -0.43198,-0.94809 -0.78542,-2.78523 -0.78542,-4.08254 v -2.35874 l -3.24887,2.38489 c -8.08366,5.93395 -15.184,6.74177 -18.90297,2.15064 -1.64488,-2.03064 -1.46197,-5.87289 0.82938,-17.42198 1.0912,-5.5 1.98516,-10.075 1.98657,-10.16666 0.001,-0.0917 -1.21737,-0.16667 -2.70839,-0.16667 -2.52884,0 -2.69678,-0.11638 -2.5,-1.73257 0.17322,-1.42268 0.91684,-2.01887 4.15753,-3.33333 7.76159,-3.14817 8.01399,-2.43757 5.0928,14.33828 -2.58126,14.82372 -2.42203,16.06095 2.06697,16.06095 3.41317,0 7.53667,-1.91043 11.26519,-5.2192 l 2.78727,-2.47349 1.91727,-10.32032 c 1.3712,-7.38094 1.74487,-10.8234 1.31196,-12.08666 -0.58448,-1.70558 -0.502,-1.78183 2.39776,-2.21668 1.65169,-0.24768 3.08133,-0.35283 3.17698,-0.23366 1.43183,1.7839 1.35317,3.37896 -0.66308,13.44627 -1.18638,5.92372 -2.3686,12.64541 -2.62717,14.93708 l -0.47011,4.16666 h 2.39879 c 2.19102,0 2.39879,0.16404 2.39879,1.89392 0,1.76174 -0.26752,1.95377 -3.83333,2.75166 -2.10834,0.47177 -4.1549,0.9811 -4.54792,1.13185 -0.39302,0.15075 -1.06802,-0.50162 -1.5,-1.4497 z m 22.78232,0.98356 c -1.15441,-0.3562 -3.02941,-1.7074 -4.16666,-3.00266 -1.62539,-1.85121 -2.06774,-2.96699 -2.06774,-5.21561 0,-3.22078 2.00257,-5.75968 4.54297,-5.75968 1.34595,0 1.45703,0.32412 1.45703,4.2517 0,5.20758 0.70518,5.93531 5.70783,5.89036 4.07478,-0.0366 6.58995,-1.2697 7.74047,-3.79483 1.282,-2.81369 0.13685,-4.8683 -4.57679,-8.21161 -9.87173,-7.00184 -11.9925,-10.16222 -10.00744,-14.91313 3.32886,-7.96709 18.11665,-9.86011 21.49014,-2.75101 1.76085,3.71073 -0.41541,8.19518 -3.97705,8.19518 -0.80235,0 -1.04383,-0.74028 -1.04383,-3.2 0,-1.76 -0.36,-3.56 -0.8,-4 -0.97686,-0.97686 -6.80698,-1.05724 -8.56188,-0.11805 -1.9858,1.06277 -2.76224,2.98891 -1.92681,4.77996 0.39459,0.84595 3.57834,3.60391 7.07499,6.12881 7.10187,5.12818 8.58003,7.3643 8.03931,12.16162 -0.41638,3.69411 -2.49546,6.47421 -6.17312,8.25453 -3.38886,1.64052 -9.60222,2.27612 -12.75142,1.30442 z m 69.77614,-0.0496 c -4.72505,-0.9978 -6.88868,-6.47191 -5.50301,-13.92294 1.02546,-5.51415 3.25514,-9.70296 7.68625,-14.43982 5.1784,-5.53572 10.83429,-8.44158 15.9192,-8.17887 2.00666,0.10366 4.35967,-0.20839 5.40511,-0.71683 2.21841,-1.07891 2.72972,-0.63641 3.65141,3.16011 0.59049,2.43227 0.32344,4.44681 -1.90003,14.33333 -2.77737,12.34944 -2.97626,14.1009 -1.91748,16.8857 0.85188,2.24061 0.7228,2.36448 -2.88817,2.77149 -2.65381,0.29912 -2.97584,0.17971 -3.35716,-1.24485 -0.23198,-0.86664 -0.42588,-2.42625 -0.43089,-3.46582 l -0.009,-1.89011 -3.16667,2.2989 c -5.55167,4.03034 -9.37199,5.2792 -13.48946,4.40971 z m 11.88994,-7.06352 c 2.07549,-1.2794 3.68473,-2.98825 4.8708,-5.17228 1.80948,-3.33196 4.95975,-16.36129 4.3439,-17.96615 -0.54224,-1.41308 -3.6397,-1.85047 -7.47132,-1.05503 -6.56867,1.36365 -11.48082,7.26208 -13.03091,15.64731 -0.86274,4.66697 -0.36223,7.932 1.50163,9.79587 1.82088,1.82088 5.5844,1.34025 9.7859,-1.24972 z m 22.78835,5.8553 c -0.67591,-1.63178 -0.48674,-3.42139 1.2149,-11.49311 1.1085,-5.25821 3.25481,-16.31039 4.76957,-24.56039 l 2.7541,-15 -2.04703,-1.71521 c -3.57088,-2.99206 -2.52848,-4.55391 3.67883,-5.51207 2.2832,-0.35244 2.95125,-0.17869 4.11371,1.06992 l 1.38785,1.4907 -3.27649,17 c -1.80207,9.35 -3.98868,21.00887 -4.85914,25.90859 l -1.58264,8.9086 3.61252,-0.29958 c 3.539,-0.29348 3.60844,-0.26527 3.41209,1.3861 -0.20863,1.75465 0.21864,1.58337 -10.95574,4.39181 -1.10495,0.2777 -1.60044,-0.0735 -2.22253,-1.57536 z m 65.25355,1.35074 c -4.59294,-1.50213 -8.08133,-5.86943 -8.84289,-11.0709 -0.5205,-3.55507 1.1308,-11.13823 3.19097,-14.65364 5.21284,-8.89504 16.8015,-14.44184 23.89762,-11.43837 3.75456,1.58913 4.77149,3.35158 5.18981,8.99452 0.58384,7.87567 1.50578,7.31066 -12.51719,7.67116 -6.675,0.1716 -12.44935,0.50543 -12.83187,0.74184 -0.38252,0.23642 -0.69437,2.43714 -0.693,4.8905 0.004,7.45694 2.50836,10.12732 9.49709,10.12732 4.11256,0 8.42182,-1.92183 10.89214,-4.85764 1.68384,-2.00113 1.79431,-2.03493 2.68223,-0.82064 1.38343,1.89197 1.15818,2.66967 -1.4319,4.94379 -5.25358,4.61271 -13.98498,7.12302 -19.03301,5.47206 z m 16.59036,-27.84351 c 0.17078,-2.94571 -0.0179,-3.59149 -1.31501,-4.5 -2.08657,-1.46149 -4.29831,-1.32061 -8.26497,0.52645 -2.99186,1.39316 -7.61942,5.79714 -7.61942,7.2513 0,0.29408 3.825,0.45073 8.5,0.34811 l 8.5,-0.18659 z m 12.75955,26.34017 c -0.68958,-1.66479 -0.49717,-3.47009 1.28915,-12.09554 1.15483,-5.57628 3.29781,-16.58869 4.76217,-24.47202 l 2.66246,-14.33334 -2.2708,-1.84539 c -2.73311,-2.22111 -2.59411,-4.22063 0.33253,-4.78319 1.06271,-0.20428 2.7968,-0.53748 3.85354,-0.74044 1.42303,-0.27332 2.35369,0.0293 3.58842,1.16667 l 1.66709,1.53569 -1.92455,9.66666 c -1.0585,5.31667 -3.12881,16.26667 -4.60068,24.33334 -1.47188,8.06666 -2.83598,15.38009 -3.03134,16.25205 -0.34714,1.54936 -0.27036,1.57835 3.37936,1.27568 3.67198,-0.30451 3.7312,-0.28145 3.53413,1.37609 -0.21269,1.78893 -0.17283,1.77137 -8.31568,3.66407 l -4.11524,0.95653 z m 46.15242,0.41064 c -0.42792,-0.93918 -0.77804,-2.7687 -0.77804,-4.06559 v -2.35799 l -2.58954,2.05096 c -6.15158,4.87214 -13.81984,6.74571 -17.42879,4.25834 -3.99844,-2.75581 -4.11161,-4.37929 -1.315,-18.86392 1.0973,-5.68334 1.9962,-10.40834 1.99755,-10.5 10e-4,-0.0917 -1.21748,-0.16667 -2.7085,-0.16667 -2.52884,0 -2.69678,-0.11638 -2.5,-1.73257 0.17322,-1.42268 0.91683,-2.01887 4.15753,-3.33333 7.88887,-3.19979 8.10951,-2.60656 5.19675,13.97272 -2.6737,15.21861 -2.52935,16.42651 1.96302,16.42651 3.41317,0 7.53667,-1.91043 11.26519,-5.2192 l 2.78727,-2.47349 1.91727,-10.32032 c 1.36481,-7.34652 1.74388,-10.82634 1.31553,-12.07642 -0.56613,-1.65218 -0.45744,-1.77997 1.83666,-2.15933 3.62556,-0.59955 3.831,-0.54968 4.58893,1.11379 0.53738,1.17943 0.20362,3.90094 -1.4512,11.83333 -1.182,5.66591 -2.35625,12.32664 -2.60945,14.80164 l -0.46035,4.5 h 2.27415 c 1.79249,0 2.35658,0.31526 2.66339,1.48851 0.4943,1.8902 0.15816,2.15889 -3.90041,3.11767 -1.83333,0.43309 -3.80821,0.92819 -4.38862,1.10021 -0.66682,0.19763 -1.34171,-0.31585 -1.83334,-1.39485 z m 19.77916,-0.82199 -1.4516,-2.34874 1.78256,-7.40374 c 1.80185,-7.48388 3.77819,-17.37172 3.7784,-18.90373 7e-5,-0.54061 -1.03179,-0.83334 -2.93748,-0.83334 -2.62859,0 -2.90017,-0.14305 -2.58193,-1.36003 0.19561,-0.74802 1.18742,-1.79015 2.20401,-2.31585 2.4235,-1.25324 6.44033,-5.98615 7.44985,-8.77794 0.81422,-2.25169 2.74953,-3.01239 3.39362,-1.3339 0.18551,0.48341 0.0807,2.20841 -0.23297,3.83333 -0.9165,4.74825 -1.00931,4.62106 3.37168,4.62106 3.98169,0 4,0.009 4,1.95963 0,1.93328 -0.0612,1.96567 -4.55213,2.40819 l -4.55213,0.44855 -1.83977,11.75848 c -1.01188,6.46717 -2.00389,12.46517 -2.20448,13.32889 -0.3517,1.51437 -0.24255,1.56195 3.05898,1.33333 3.27352,-0.22667 3.42367,-0.16373 3.42327,1.43495 -3.7e-4,1.52746 -0.46111,1.79424 -5.32934,3.0858 l -5.32894,1.41379 z m -381.51695,-0.32285 c -0.39703,-2.43352 -3.70692,-27.54876 -3.70692,-28.12788 0,-0.20467 -1.21993,-0.37212 -2.71095,-0.37212 -2.55199,0 -2.69858,-0.10539 -2.5,-1.79744 0.17792,-1.51602 0.83343,-2.03792 4.18678,-3.33334 2.18671,-0.84474 4.49811,-1.53589 5.13646,-1.53589 1.35886,0 1.31826,-0.20566 3.29054,16.66667 0.79293,6.78333 1.67684,12.5935 1.96425,12.91149 0.6189,0.68475 8.04965,-9.13813 10.35652,-13.69051 2.07575,-4.09631 2.05892,-7.01977 -0.0569,-9.88765 -0.91666,-1.24247 -1.66666,-2.92932 -1.66666,-3.74856 0,-3.39139 4.4024,-4.76015 7.42614,-2.30889 1.40091,1.13568 1.57075,1.81332 1.54555,6.16667 -0.0392,6.76473 -2.2587,11.00087 -12.97169,24.75726 -4.70246,6.03835 -5.14698,6.42181 -7.4698,6.44364 -2.27579,0.0214 -2.49755,-0.14697 -2.82328,-2.14345 z m 249.3353,0.66667 c -0.3061,-1.45064 -3.70888,-27.79322 -3.70888,-28.71227 0,-0.24992 -1.2,-0.4544 -2.66667,-0.4544 -2.40997,0 -2.66667,-0.16272 -2.66667,-1.69036 0,-1.38002 0.58139,-1.94165 3.16667,-3.05911 1.74167,-0.75281 4.10955,-1.52619 5.26195,-1.71862 2.45342,-0.40967 2.05555,-1.9955 4.34077,17.30142 0.81416,6.875 1.70175,12.5 1.97242,12.5 0.72603,0 8.40829,-10.36465 10.05908,-13.57136 1.95113,-3.79015 1.96463,-8.24275 0.0324,-10.70047 -2.70463,-3.44024 -1.39817,-7.0615 2.54762,-7.0615 5.62396,0 6.95659,8.07403 2.71838,16.46989 -2.05722,4.07531 -8.16369,12.66805 -13.28696,18.69678 -2.49626,2.93743 -3.33433,3.5 -5.21399,3.5 -1.78437,0 -2.30399,-0.30492 -2.55617,-1.5 z M 104.6737,200.14941 c -0.85098,-1.29876 -0.96423,-2.18208 -0.49146,-3.83333 1.40637,-4.91207 7.56652,-4.47541 7.56652,0.53635 0,4.49218 -4.82017,6.73838 -7.07506,3.29698 z m 23.45601,0.64003 c -1.70349,-1.70348 -1.33452,-5.29659 0.70895,-6.90399 2.19587,-1.72727 3.22111,-1.73737 4.9101,-0.0484 1.71375,1.71375 1.69583,4.02602 -0.0484,6.24343 -1.562,1.98576 -3.98543,2.29418 -5.57066,0.70895 z m 442.74488,-22.57519 c -6.53081,-3.40572 -12.12284,-6.45884 -12.42675,-6.7847 -0.30391,-0.32587 -0.89108,-8.09249 -1.30482,-17.25915 -1.10437,-24.46757 -0.86816,-23.14539 -4.44548,-24.88339 -1.64144,-0.79747 -3.22597,-1.44995 -3.52118,-1.44995 -0.2952,0 -4.06557,6.89491 -8.3786,15.32201 l -7.84186,15.32201 -10.4369,-5.31094 c -5.74029,-2.92102 -10.8227,-5.5653 -11.29423,-5.87619 -0.64263,-0.42368 5.09895,-12.15478 22.92717,-46.84439 13.08147,-25.453541 24.20808,-46.967745 24.72581,-47.809345 l 0.94131,-1.530183 18.46486,9.472588 c 22.28433,11.432006 25.63845,13.490247 30.44625,18.683242 6.4191,6.933399 9.68527,15.100709 9.68527,24.218798 0,18.86304 -13.4902,34.50547 -31.18274,36.15762 -2.79855,0.26133 -4.39684,0.72743 -4.63655,1.35212 -0.37797,0.98495 0.8897,33.80351 1.54541,40.00933 0.28069,2.65647 0.15742,3.48828 -0.51148,3.45137 -0.48472,-0.0267 -6.22469,-2.83514 -12.75549,-6.24085 z m 11.82197,-60.64574 c 3.13407,-1.3095 7.5633,-5.47961 9.17444,-8.63771 2.86014,-5.60633 2.41674,-15.007529 -0.88519,-18.768219 -2.44385,-2.7834 -16.85472,-10.325031 -17.80932,-9.320148 -0.96831,1.019312 -14.76105,28.002897 -14.76105,28.877947 0,0.42487 3.525,2.55938 7.83333,4.74335 8.50076,4.30919 11.98922,4.96769 16.44779,3.10478 z M 15.357098,172.70992 c -1.895822,-0.25283 -2.4532,-1.02183 -7.0599032,-9.74035 l -5.001578,-9.46584 7.7265702,-0.43348 c 8.73913,-0.49028 13.355878,-1.58483 20.386871,-4.83335 6.015357,-2.77926 10.42886,-6.75323 12.73493,-11.46666 1.493197,-3.05199 1.717559,-4.26281 1.499851,-8.09434 -0.25108,-4.41889 -0.569733,-5.10065 -16.575542,-35.463799 C 20.09255,76.185043 12.672009,62.079801 12.578207,61.867122 12.278978,61.188676 34.56531,49.717708 35.072849,50.288935 c 0.713419,0.802944 28.913013,54.505205 31.672683,60.316275 5.59217,11.77553 5.64089,24.77314 0.13358,35.64129 -6.003791,11.8479 -18.341538,21.48512 -31.797021,24.83717 -5.007045,1.24737 -15.857952,2.14198 -19.724993,1.62625 z M 155.74876,159.50373 c 0,-0.88555 15.22222,-1 133,-1 117.77778,0 133.00001,0.11445 133.00001,1 0,0.88555 -15.22223,1 -133.00001,1 -117.77778,0 -133,-0.11445 -133,-1 z m 314.00001,-21.73829 c -14.85,-3.62459 -31.575,-7.69065 -37.16667,-9.03568 -7.88732,-1.89723 -10.16667,-2.68609 -10.16667,-3.51856 0,-1.00416 24.56744,-103.531819 24.86362,-103.763703 0.24072,-0.188466 76.65332,18.350942 76.97927,18.676896 0.64353,0.643527 -4.80419,21.046005 -5.61955,21.046005 -0.45112,0 -12.03582,-2.7 -25.74379,-6 -13.70797,-3.3 -25.22289,-6 -25.58872,-6 -0.85472,0 -5.75065,20.073509 -5.06351,20.760645 0.28443,0.284431 9.36464,2.637521 20.17825,5.229088 10.81361,2.591567 19.99707,4.829669 20.40769,4.97356 0.50865,0.178241 0.0464,3.16687 -1.4505,9.37744 -1.20839,5.0137 -2.3434,9.26214 -2.52224,9.44098 -0.17884,0.17883 -9.50343,-1.90184 -20.72131,-4.62372 -14.27455,-3.46355 -20.56623,-4.73015 -20.96279,-4.2201 -0.84843,1.09121 -4.91435,18.084659 -4.65111,19.439229 0.18661,0.96027 4.86691,2.29133 25.7698,7.32879 14.04798,3.38548 25.67727,6.2909 25.84287,6.4565 0.1656,0.1656 -0.8085,4.9968 -2.16467,10.73601 -2.21806,9.38666 -2.6041,10.42747 -3.84287,10.36085 -0.7574,-0.0407 -13.5271,-3.03964 -28.3771,-6.66423 z M 112.5499,133.8677 c -11.47774,-3.1141 -19.856758,-10.07631 -25.101148,-20.85677 -2.65736,-5.46251 -3.86045,-9.66728 -9.69162,-33.871958 -3.6617,-15.199382 -7.38182,-30.581064 -8.26694,-34.181515 -1.14305,-4.649635 -1.38701,-6.626304 -0.84204,-6.8225 3.36606,-1.21182 23.43627,-5.55174 23.80278,-5.147038 0.25692,0.283697 3.83053,14.615812 7.941358,31.849145 4.11082,17.233334 8.16575,32.833337 9.01095,34.666667 1.86399,4.043249 4.14877,6.510139 7.87287,8.500409 3.9255,2.09789 13.11252,2.06199 18.57071,-0.0726 4.66843,-1.82571 9.34862,-5.86386 11.17944,-9.645819 2.48047,-5.12397 2.0416,-8.0989 -6.34216,-42.991259 -4.25648,-17.715087 -7.60671,-32.341602 -7.44495,-32.503365 0.5639,-0.563896 23.79933,-5.886554 24.15303,-5.532856 0.71451,0.714514 15.61985,63.769227 16.41086,69.42356 1.39171,9.94841 -0.66368,20.015349 -5.60018,27.428729 -5.94526,8.9283 -14.9059,15.03353 -27.54501,18.7675 -8.2929,2.44996 -21.06784,2.89975 -28.10795,0.98965 z m 82.90138,-17.53064 c -0.74156,-6.59719 -8.38619,-103.371878 -8.18191,-103.576164 0.27558,-0.275577 14.27059,-1.589242 16.9383,-1.589941 1.96734,-5.16e-4 3.94986,2.084792 26.63069,28.011437 13.47781,15.406596 24.8213,27.900074 25.20775,27.763285 0.87564,-0.309942 0.86904,-0.437268 -1.69264,-32.633521 -1.16075,-14.5887 -1.98758,-26.6477782 -1.8374,-26.7979522 0.30426,-0.304259 24.71198,-2.431704 24.93833,-2.173695 0.26534,0.30245 8.72718,106.8270012 8.50827,107.1090412 -0.11916,0.15354 -4.41182,0.60742 -9.53922,1.00863 l -9.32257,0.72946 -24.77091,-28.547099 C 225.61313,66.375305 217.3396,57.312891 216.8841,57.768393 c -0.4555,0.455501 0.10056,10.275088 1.71022,30.200888 1.31185,16.239259 2.2977,29.613409 2.19078,29.720329 -0.21586,0.21586 -21.19109,2.12619 -23.48837,2.13922 -1.25873,0.007 -1.5044,-0.4577 -1.84545,-3.49177 z m 158.83628,-1.76781 c -6.12033,-0.60447 -11.35645,-1.32762 -11.63582,-1.60699 -0.47601,-0.47601 9.26554,-106.2034482 9.83424,-106.7333972 0.14453,-0.134683 10.59004,0.758717 23.21224,1.985332 15.59727,1.51573 24.3539,2.6600132 27.33334,3.5718172 15.52874,4.752294 26.05054,18.733063 26.05054,34.614468 0,17.720458 -11.02158,31.566719 -28,35.176014 -4.99652,1.062167 -8.15678,1.041217 -24.72277,-0.163925 l -5.72276,-0.416318 -1.50328,16.58707 c -0.8268,9.122889 -1.61713,16.962079 -1.75631,17.420409 -0.13917,0.45833 -0.63745,0.79536 -1.10729,0.74895 -0.46984,-0.0464 -5.8618,-0.57895 -11.98213,-1.18343 z m 38.86172,-52.153005 c 5.49852,-1.829856 10.59949,-9.609156 10.59949,-16.164902 0,-6.727721 -3.6644,-13.755899 -8.21512,-15.756282 -2.67105,-1.174127 -18.75234,-3.246101 -19.48758,-2.510853 -0.48921,0.489211 -3.61234,32.757982 -3.21059,33.172427 0.33455,0.345122 12.03238,1.753822 15.98047,1.924432 1.13695,0.04913 3.08695,-0.250038 4.33333,-0.664822 z m -91.60169,50.920815 c -0.21134,-0.37756 0.28231,-62.837918 0.82195,-103.9999962 l 0.0459,-3.5 h 12.63675 12.63674 l -0.32302,45.8333342 c -0.17767,25.208333 -0.49442,49.508332 -0.70388,54.000002 l -0.38086,8.16666 h -12.22686 c -6.72477,0 -12.3528,-0.225 -12.50672,-0.5 z"
       id="path1" />
  </g>
</svg>
