<?xml version="1.0" encoding="UTF-8" standalone="no"?>
<!-- Created with Inkscape (http://www.inkscape.org/) -->

<svg
   version="1.1"
   id="svg1"
   width="22.256578"
   height="18.590555"
   viewBox="0 0 22.256578 18.590555"
   sodipodi:docname="merkki.svg"
   inkscape:version="1.3.2 (091e20e, 2023-11-25, custom)"
   xmlns:inkscape="http://www.inkscape.org/namespaces/inkscape"
   xmlns:sodipodi="http://sodipodi.sourceforge.net/DTD/sodipodi-0.dtd"
   xmlns="http://www.w3.org/2000/svg"
   xmlns:svg="http://www.w3.org/2000/svg">
  <defs
     id="defs1" />
  <sodipodi:namedview
     id="namedview1"
     pagecolor="#ffffff"
     bordercolor="#000000"
     borderopacity="0.25"
     inkscape:showpageshadow="2"
     inkscape:pageopacity="0.0"
     inkscape:pagecheckerboard="0"
     inkscape:deskcolor="#d1d1d1"
     inkscape:zoom="2.3322981"
     inkscape:cx="-15.43542"
     inkscape:cy="10.504661"
     inkscape:window-width="1920"
     inkscape:window-height="986"
     inkscape:window-x="-11"
     inkscape:window-y="-11"
     inkscape:window-maximized="1"
     inkscape:current-layer="g1"
     showguides="true" />
  <g
     inkscape:groupmode="layer"
     inkscape:label="Image"
     id="g1"
     transform="translate(-151.0489,-124.07611)">
    <path
       style="display:inline;fill:#000000"
       d="m 164.56777,141.04916 c -1.14235,-2.50718 -0.26158,-4.65096 2.2899,-5.57358 3.04121,-1.09972 3.54588,-1.03559 5.11637,0.65013 1.5092,1.61994 1.79071,4.50954 0.5593,5.74096 -0.44,0.44 -2.24643,0.8 -4.01429,0.8 -2.75558,0 -3.31947,-0.23084 -3.95128,-1.61751 z m -12.57056,-1.38586 c -0.48813,-0.58816 -0.91218,-2.31522 -0.94235,-3.83792 -0.0482,-2.43194 0.16578,-2.84764 1.75982,-3.4191 1.14811,-0.41159 2.72381,-0.42202 4.2897,-0.0284 5.20647,1.30873 3.97482,7.73915 -1.562,8.15513 -1.81638,0.13647 -2.93861,-0.13884 -3.54517,-0.8697 z m 9.87362,-6.42566 c -2.30772,-0.84439 -3.68269,-4.48949 -2.44253,-6.47529 1.78522,-2.8586 6.26084,-3.61417 8.26838,-1.39586 2.55757,2.82609 0.75237,8.70846 -2.63333,8.58088 -0.76817,-0.029 -2.20481,-0.34833 -3.19252,-0.70973 z"
       id="path2"
       sodipodi:nodetypes="sssssssssssssssscs" />
  </g>
</svg>
